<?xml version="1.0" encoding="UTF-8" standalone="no"?>
<!DOCTYPE svg PUBLIC "-//W3C//DTD SVG 1.1//EN"
 "http://www.w3.org/Graphics/SVG/1.1/DTD/svg11.dtd">
<!-- Generated by graphviz version 2.40.1 (20161225.0304)
 -->
<!-- Title: dependencies Pages: 1 -->
<svg width="736pt" height="211pt"
 viewBox="0.00 0.00 736.00 211.00" xmlns="http://www.w3.org/2000/svg" xmlns:xlink="http://www.w3.org/1999/xlink">
<g id="graph0" class="graph" transform="scale(1 1) rotate(0) translate(4 207)">
<title>dependencies</title>
<polygon fill="#ffffff" stroke="transparent" points="-4,4 -4,-207 732,-207 732,4 -4,4"/>
<text text-anchor="start" x="343.0091" y="-42.4" font-family="sans-serif" font-weight="bold" font-size="14.00" fill="#000000">Legend</text>
<polygon fill="#ffffb3" stroke="transparent" points="130,-10 130,-30 150,-30 150,-10 130,-10"/>
<text text-anchor="start" x="153.629" y="-15.4" font-family="sans-serif" font-size="14.00" fill="#000000"> &#160;Declarations</text>
<polygon fill="#8dd3c7" stroke="transparent" points="243,-10 243,-30 263,-30 263,-10 243,-10"/>
<text text-anchor="start" x="266.7251" y="-15.4" font-family="sans-serif" font-size="14.00" fill="#000000"> &#160;Module</text>
<polygon fill="#80b1d3" stroke="transparent" points="329,-10 329,-30 349,-30 349,-10 329,-10"/>
<text text-anchor="start" x="352.7812" y="-15.4" font-family="sans-serif" font-size="14.00" fill="#000000"> &#160;Bootstrap</text>
<polygon fill="#fdb462" stroke="transparent" points="426,-10 426,-30 446,-30 446,-10 426,-10"/>
<text text-anchor="start" x="449.6732" y="-15.4" font-family="sans-serif" font-size="14.00" fill="#000000"> &#160;Providers</text>
<polygon fill="#fb8072" stroke="transparent" points="522,-10 522,-30 542,-30 542,-10 522,-10"/>
<text text-anchor="start" x="545.7258" y="-15.4" font-family="sans-serif" font-size="14.00" fill="#000000"> &#160;Exports</text>
<g id="clust1" class="cluster">
<title>cluster_SignalrModule</title>
<polygon fill="none" stroke="#000000" stroke-dasharray="1,5" points="8,-70 8,-195 720,-195 720,-70 8,-70"/>
</g>
<g id="clust2" class="cluster">
<title>cluster_SignalrModule_declarations</title>
<polygon fill="none" stroke="#000000" points="138,-78 138,-130 712,-130 712,-78 138,-78"/>
</g>
<g id="clust7" class="cluster">
<title>cluster_SignalrModule_imports</title>
<polygon fill="none" stroke="#000000" points="16,-78 16,-130 130,-130 130,-78 16,-78"/>
</g>
<!-- ChatComponent -->
<g id="node1" class="node">
<title>ChatComponent</title>
<polygon fill="#ffffb3" stroke="#000000" points="703.7744,-122 596.2256,-122 596.2256,-86 703.7744,-86 703.7744,-122"/>
<text text-anchor="middle" x="650" y="-99.8" font-family="Times,serif" font-size="14.00" fill="#000000">ChatComponent</text>
</g>
<!-- SignalrModule -->
<g id="node5" class="node">
<title>SignalrModule</title>
<polygon fill="#8dd3c7" stroke="#000000" points="409.9888,-187 406.9888,-191 385.9888,-191 382.9888,-187 310.0112,-187 310.0112,-151 409.9888,-151 409.9888,-187"/>
<text text-anchor="middle" x="360" y="-164.8" font-family="Times,serif" font-size="14.00" fill="#000000">SignalrModule</text>
</g>
<!-- ChatComponent&#45;&gt;SignalrModule -->
<g id="edge1" class="edge">
<title>ChatComponent&#45;&gt;SignalrModule</title>
<path fill="none" stroke="#000000" d="M650,-122.2843C650,-143.3211 650,-175 650,-175 650,-175 420.1831,-175 420.1831,-175"/>
<polygon fill="#000000" stroke="#000000" points="420.1831,-171.5001 410.1831,-175 420.183,-178.5001 420.1831,-171.5001"/>
</g>
<!-- DraggableDirective -->
<g id="node2" class="node">
<title>DraggableDirective</title>
<polygon fill="#ffffb3" stroke="#000000" points="578.385,-122 451.615,-122 451.615,-86 578.385,-86 578.385,-122"/>
<text text-anchor="middle" x="515" y="-99.8" font-family="Times,serif" font-size="14.00" fill="#000000">DraggableDirective</text>
</g>
<!-- DraggableDirective&#45;&gt;SignalrModule -->
<g id="edge2" class="edge">
<title>DraggableDirective&#45;&gt;SignalrModule</title>
<path fill="none" stroke="#000000" d="M515,-122.0225C515,-139.3734 515,-163 515,-163 515,-163 420.3241,-163 420.3241,-163"/>
<polygon fill="#000000" stroke="#000000" points="420.3241,-159.5001 410.3241,-163 420.324,-166.5001 420.3241,-159.5001"/>
</g>
<!-- MoveShapeComponent -->
<g id="node3" class="node">
<title>MoveShapeComponent</title>
<polygon fill="#ffffb3" stroke="#000000" points="434.2035,-122 285.7965,-122 285.7965,-86 434.2035,-86 434.2035,-122"/>
<text text-anchor="middle" x="360" y="-99.8" font-family="Times,serif" font-size="14.00" fill="#000000">MoveShapeComponent</text>
</g>
<!-- MoveShapeComponent&#45;&gt;SignalrModule -->
<g id="edge3" class="edge">
<title>MoveShapeComponent&#45;&gt;SignalrModule</title>
<path fill="none" stroke="#000000" d="M360,-122.1061C360,-122.1061 360,-140.991 360,-140.991"/>
<polygon fill="#000000" stroke="#000000" points="356.5001,-140.9909 360,-150.991 363.5001,-140.991 356.5001,-140.9909"/>
</g>
<!-- SignalrComponent -->
<g id="node4" class="node">
<title>SignalrComponent</title>
<polygon fill="#ffffb3" stroke="#000000" points="267.7716,-122 146.2284,-122 146.2284,-86 267.7716,-86 267.7716,-122"/>
<text text-anchor="middle" x="207" y="-99.8" font-family="Times,serif" font-size="14.00" fill="#000000">SignalrComponent</text>
</g>
<!-- SignalrComponent&#45;&gt;SignalrModule -->
<g id="edge4" class="edge">
<title>SignalrComponent&#45;&gt;SignalrModule</title>
<path fill="none" stroke="#000000" d="M207,-122.0225C207,-139.3734 207,-163 207,-163 207,-163 299.9021,-163 299.9021,-163"/>
<polygon fill="#000000" stroke="#000000" points="299.9021,-166.5001 309.9021,-163 299.902,-159.5001 299.9021,-166.5001"/>
</g>
<!-- SharedModule -->
<g id="node6" class="node">
<title>SharedModule</title>
<polygon fill="#8dd3c7" stroke="#000000" points="122.4231,-122 119.4231,-126 98.4231,-126 95.4231,-122 23.5769,-122 23.5769,-86 122.4231,-86 122.4231,-122"/>
<text text-anchor="middle" x="73" y="-99.8" font-family="Times,serif" font-size="14.00" fill="#000000">SharedModule</text>
</g>
<!-- SharedModule&#45;&gt;SignalrModule -->
<g id="edge5" class="edge">
<title>SharedModule&#45;&gt;SignalrModule</title>
<path fill="none" stroke="#000000" d="M73,-122.2843C73,-143.3211 73,-175 73,-175 73,-175 300.0084,-175 300.0084,-175"/>
<polygon fill="#000000" stroke="#000000" points="300.0085,-178.5001 310.0084,-175 300.0084,-171.5001 300.0085,-178.5001"/>
</g>
</g>
</svg>
